<?xml version="1.0" encoding="UTF-8"?>
<svg id="Layer_1" data-name="Layer 1" xmlns="http://www.w3.org/2000/svg" version="1.1" viewBox="0 0 512 512">
  <defs>
    <style>
      .cls-1 {
        fill: #c0edff;
      }

      .cls-1, .cls-2, .cls-3 {
        stroke-width: 0px;
      }

      .cls-2 {
        fill: #000;
      }

      .cls-4 {
        isolation: isolate;
      }

      .cls-3 {
        fill: #fff;
      }
    </style>
  </defs>
  <g>
    <path class="cls-3" d="M256.3,432.7c-97.2,0-176.4-79.1-176.4-176.4s79.1-176.4,176.4-176.4,176.4,79.1,176.4,176.4-79.1,176.4-176.4,176.4Z"/>
    <path class="cls-2" d="M256.3,81.6c46.7,0,90.6,18.2,123.6,51.2s51.2,76.9,51.2,123.6-18.2,90.6-51.2,123.6-76.9,51.2-123.6,51.2-90.6-18.2-123.6-51.2-51.2-76.9-51.2-123.6,18.2-90.6,51.2-123.6,76.9-51.2,123.6-51.2M256.3,78.4c-98.3,0-177.9,79.7-177.9,177.9s79.7,177.9,177.9,177.9,177.9-79.7,177.9-177.9-79.7-177.9-177.9-177.9h0Z"/>
  </g>
  <g>
    <path class="cls-3" d="M256.3,432.7c-97.2,0-176.4-79.1-176.4-176.4s79.1-176.4,176.4-176.4,176.4,79.1,176.4,176.4-79.1,176.4-176.4,176.4Z"/>
    <path class="cls-2" d="M256.3,81.6c46.7,0,90.6,18.2,123.6,51.2s51.2,76.9,51.2,123.6-18.2,90.6-51.2,123.6-76.9,51.2-123.6,51.2-90.6-18.2-123.6-51.2-51.2-76.9-51.2-123.6,18.2-90.6,51.2-123.6,76.9-51.2,123.6-51.2M256.3,78.4c-98.3,0-177.9,79.7-177.9,177.9s79.7,177.9,177.9,177.9,177.9-79.7,177.9-177.9-79.7-177.9-177.9-177.9h0Z"/>
  </g>
  <g>
    <path class="cls-1" d="M256.3,432.7c-97.2,0-176.4-79.1-176.4-176.4s79.1-176.4,176.4-176.4,176.4,79.1,176.4,176.4-79.1,176.4-176.4,176.4Z"/>
    <path class="cls-2" d="M256.3,81.6c46.7,0,90.6,18.2,123.6,51.2s51.2,76.9,51.2,123.6-18.2,90.6-51.2,123.6-76.9,51.2-123.6,51.2-90.6-18.2-123.6-51.2-51.2-76.9-51.2-123.6,18.2-90.6,51.2-123.6,76.9-51.2,123.6-51.2M256.3,78.4c-98.3,0-177.9,79.7-177.9,177.9s79.7,177.9,177.9,177.9,177.9-79.7,177.9-177.9-79.7-177.9-177.9-177.9h0Z"/>
  </g>
  <g>
    <path class="cls-3" d="M288.5,398.7c-78.7,0-142.7-64-142.7-142.7s64-142.7,142.7-142.7,142.7,64,142.7,142.7-64,142.7-142.7,142.7Z"/>
    <path class="cls-2" d="M288.5,114.6c37.8,0,73.3,14.7,100,41.4s41.4,62.2,41.4,100-14.7,73.3-41.4,100c-26.7,26.7-62.2,41.4-100,41.4s-73.3-14.7-100-41.4c-26.7-26.7-41.4-62.2-41.4-100s14.7-73.3,41.4-100,62.2-41.4,100-41.4M288.5,112c-79.5,0-144,64.5-144,144s64.5,144,144,144,144-64.5,144-144-64.5-144-144-144h0Z"/>
  </g>
  <g class="cls-4">
    <text/>
  </g>
  <text/>
</svg>