<?xml version="1.0" encoding="utf-8"?>
<!-- Generator: Adobe Illustrator 27.9.0, SVG Export Plug-In . SVG Version: 6.00 Build 0)  -->
<svg version="1.1" id="Layer_1" xmlns="http://www.w3.org/2000/svg" xmlns:xlink="http://www.w3.org/1999/xlink" x="0px" y="0px"
	 viewBox="0 0 1920 1080" style="enable-background:new 0 0 1920 1080;" xml:space="preserve">
<style type="text/css">
	.st0{fill:none;}
	.st1{font-family:'GongNormal';}
	.st2{font-size:300px;}
</style>
<g>
	<rect x="488.87" y="22.94" width="942.26" height="114.98"/>
	<path d="M1430.84,23.24v114.39H489.16V23.24H1430.84 M1431.43,22.64H488.57v115.57h942.86V22.64L1431.43,22.64z"/>
</g>
<rect x="469" y="227.14" class="st0" width="982" height="267.57"/>
<text transform="matrix(1 0 0 1 468.9999 466.2416)" class="st1 st2">KATE</text>
<rect x="1248.43" y="674.71" class="st0" width="0" height="2.86"/>
<rect x="469" y="631" class="st0" width="982" height="265.71"/>
<text transform="matrix(1 0 0 1 469 870.0995)" class="st1 st2">SHEP</text>
<rect x="488.57" y="517.53" width="942.86" height="44.95"/>
<g>
	<rect x="488.87" y="942.08" width="942.26" height="114.98"/>
	<path d="M1430.84,942.38v114.39H489.17V942.38H1430.84 M1431.43,941.78H488.57v115.57h942.86V941.78L1431.43,941.78z"/>
</g>
</svg>
