<?xml version="1.0" encoding="UTF-8"?>
<svg id="Layer_1" data-name="Layer 1" xmlns="http://www.w3.org/2000/svg" version="1.1" viewBox="0 0 512 512">
  <defs>
    <style>
      .cls-1 {
        stroke-width: 1.3px;
      }

      .cls-1, .cls-2 {
        fill: none;
        stroke: #000;
        stroke-miterlimit: 10;
      }

      .cls-3 {
        isolation: isolate;
      }
    </style>
  </defs>
  <ellipse class="cls-1" cx="254.5" cy="261" rx="194.5" ry="192"/>
  <g class="cls-3">
    <g class="cls-3">
      <g class="cls-3">
        <path class="cls-2" d="M192.4,243.2c0,1.1-.1,2.8-.4,5-.3,2.2-.4,3.7-.4,4.5s0,1.4.3,1.9c-5.8,6-8.9,8.9-9.4,8.9s-.8-.4-1.7-1.2-1.6-1.5-2.1-2.2v-1.8c0-.1.2-1.7.5-4.7.3-3,.5-4.6.5-4.7,0-2.4-.4-4.7-1.2-7.1-1.1-.5-2.3-.7-3.7-.7-2.3,0-5.3.8-8.9,2.3-3.3,1.5-6.2,3.2-8.7,5.2.5,2.7,1.1,4.9,1.7,6.6,0,.2.4.8,1,1.6s.9,1.4.9,1.5-3,3.3-9,9.3c-3.6-2.9-5.7-5.9-6.5-9-2.9-12-4.4-21.5-4.4-28.6s.3-9.5,1-14.4c.2-1.5.6-2.6,1.2-3.2,1.1-1.3,2.5-2.9,4.4-4.7,1.6-1.5,3.1-3,4.7-4.5,2.4,2.4,3.5,3.6,3.5,3.9s-.1.6-.4,1.3c-.3.7-.5,1.2-.5,1.6-.6,5.1-.9,9.9-.9,14.3s.2,5.9.7,10.4l.3.4c.9-1.2,4-5.2,9.3-12,1.6-2.2,4.2-5.4,7.7-9.6,2.3-2.2,5.8-5.6,10.4-10.2,2.4,2.4,3.5,3.6,3.5,3.7,0,.2-.7,1.1-2.2,2.7-1.8,2.1-2.9,3.3-3.3,3.8-3.9,4.9-6.7,8.4-8.2,10.4-3.4,4.4-5.9,7.9-7.6,10.4v.2c5.8-4,11.1-6,15.9-6s7.6,1.8,9.9,5.3c.6.8,1.1,2.2,1.5,4.2s.6,3.8.6,5.3h0Z"/>
        <path class="cls-2" d="M250.9,210.1c0,.1-.5,3.3-1.6,9.4-1.1,6.1-1.6,9.2-1.6,9.4v19.8c0,1.7.4,4.4,1.2,8.1,0,.2.2.6.6,1.2.3.5.5.9.5,1,0,.2-1.5,1.8-4.4,4.8-2.9,2.9-4.5,4.4-4.7,4.4-.6,0-1.8-1.2-3.7-3.5-.6-.7-1.1-2.4-1.5-5.1-.4-2.4-.6-4.1-.6-5.3v-10.9h-1c-2.8,0-6.4.5-10.9,1.2-1.5.2-3.5.7-6,1.4,0,2,0,3.7.4,5.2,0,.6.4,1.6.9,3,.4,1.2.6,2,.6,2.2s-3,3.2-9.1,9.3c-1-.7-2.1-1.9-3.5-3.6-.6-1.2-1.2-3.4-1.7-6.6-.2-1.4-.3-3.8-.3-7.4,0-12.3,1.8-23.6,5.5-34,.1-.4,1.8-2.2,4.9-5.3,3.1-3.1,4.8-4.6,5.1-4.6s.5.3,1.1,1c.6.6,1,1,1.2,1h16.2c1.8,0,4.9.1,9.3.4.2,0,.9.6,1.8,1.6,1,1,1.5,1.7,1.5,2.1l-.2-.2ZM237.4,219.6v-.8h-17.8s-.5,2.7-1.4,7.8c-.6,3-.9,5.6-.9,7.9,5.5-1.7,11.5-2.8,18.2-3.4.2-1.3.6-3.7,1.2-7,.5-2.9.7-4.4.7-4.5Z"/>
        <path class="cls-2" d="M318.7,209.4c0,.3-1.5,2-4.5,5.1-3,3-4.6,4.6-4.8,4.6s-.5,0-1-.3c-.5-.2-.9-.3-1.2-.3-2.7-.4-6.6-.8-11.9-1.3-.6,1.3-.9,2.4-.9,3.2-.4,6.4-.6,10.7-.6,12.7,0,6.3,1,12.5,2.9,18.5,0,.6.1,1.4.4,2.4,0,.3.5.9,1.2,1.8.7.9,1.1,1.4,1.1,1.6,0,.6-3,3.7-9.1,9.4-.4.3-.7.4-1.1.4s-.8-.5-1.9-1.5-2-2-2.7-2.8c0-.3-.1-.9-.3-1.6-.2-.4-.5-1-.9-1.8,0-.4,0-1.2-.1-2.2-.3-.6-.6-1.5-1.1-2.7,0-.2-.5-3.4-1.5-9.4-.2-1.2-.3-3.3-.3-6.4,0-7.4.5-12.7,1.5-16,.2-1.1.5-2.7,1-4.9,0,0-.3-.1-.7-.1-2.6,0-6.4.7-11.5,2.1-.1,0-1.1.4-2.7,1-1.2.4-2.2.6-2.7.6s-1.3-.4-2.2-1.3c-.9-.9-1.8-1.8-2.6-2.7,0,0,2.1-2,6.2-6,2.5-2.5,3.9-3.7,4.1-3.7s.3,0,.4.2c.1.1.3.2.5.2s1.2-.3,3.2-1c2.2-.7,3.6-1.2,4.3-1.3,6.5-1.3,13.5-2,21-2s3.7.1,5.7.4c1.3.2,2.7.5,4,.7,1.1,0,2.7.2,4.9.5.3,0,1,.6,2.2,1.8,1.2,1.1,1.8,1.8,1.8,2.1h0Z"/>
        <path class="cls-2" d="M367.3,227.3c0,.2-2.9,3.2-8.8,9.1h-13.1c-1.3,0-5.1.3-11.3.9v.7c0,.3.3,1.6.9,4,.7,2.7,1.3,4.8,1.9,6.3.4,1,1,2.2,1.9,3.7,1.5-.7,2.4-1.1,2.4-1.1h.4c.2,0,.9-.2,2.2-.7,1.6-.5,2.7-.9,3.5-1.1,6.6-1.7,11.2-2.5,13.8-2.5s.5,0,.9-.3.7-.3.9-.3.9.5,1.9,1.5c1.1,1,1.6,1.7,1.6,1.9s-1.3,1.8-3.9,4.5c-2.7,2.8-4.6,4.4-5.5,4.8-.5.2-1.3.3-2.4.4-1.5,0-2.4,0-2.7.1-.8,0-3.6.7-8.2,1.9-1,.1-2.5.6-4.6,1.4-.2.1-.8.8-1.9,1.9s-1.7,1.7-1.9,1.7c0,0-.2-.2-.9-.5-1.2-.6-2.7-1.7-4.5-3.4-1.7-1.7-3-3.3-4-4.7-.5-.8-1.1-2.1-1.8-3.7-1.1-2.8-2.1-6.4-2.8-10.8-.8-4.4-1.2-8.4-1.2-11.9,0-5.3.3-10.1.8-14.3,0-1.2.2-2.5.3-3.7.2-1.5.7-2.8,1.4-3.8,1-1.6,2.7-3.5,5.2-5.8,2.3-2.1,3.6-3.2,3.9-3.2s.7.5,1.7,1.4c.9.9,1.6,1.7,2,2.2-.2,1-.4,1.5-.4,1.6,1.2-.2,3.8-.4,8.1-.4-.1,0,.4,0,1.5-.1h2.9c1.2,0,2.1.2,2.8.4.7.2,1.5.9,2.4,1.9s1.4,1.7,1.4,2-3,3.4-9.1,9.4c-.5-.5-.9-.8-1.2-.9-1.2-.1-2-.2-2.4-.2.4,0-.2,0-1.8,0h-6.8c.2.1.3.5.2,1.2-.2,1.6-.3,3-.3,4.2s.6,1.9,1.9,1.9c9.6-1.1,15.1-1.7,16.8-1.7h12.5c2.1,2.2,3.2,3.3,3.2,3.5l.2.6Z"/>
      </g>
    </g>
  </g>
  <g class="cls-3">
    <g class="cls-3">
      <g class="cls-3">
        <path class="cls-2" d="M204.1,312c0,.1-2.5,2.6-7.4,7.6-.8-.6-1.7-1.6-2.9-2.9-.4-1.3-1.1-3.2-2.2-5.7-.2-.4-1-.8-2.3-1.2-2.2-.6-3.9-1-5.1-1s-3.2.2-4.6.6c-1,.3-1.6.5-1.9.7-.8.4-1.4.7-1.8,1.1-1.5,1.5-2.9,4.2-4.2,8.1-1.3,3.8-1.9,6.9-1.9,9.4s.2,3.3.7,4c1,0,1.8,0,2.3-.2,2.5-.8,6.1-2.3,10.6-4.7,3.1-1.7,6.2-2.5,9.2-2.5s2.9.1,3.6.4c.5.2,1.3.8,2.3,1.8,1.2,1.2,1.8,2.1,1.8,2.7,0,1-1.7,3.3-5.2,6.9-2.7,2.7-4.7,4.7-6.2,5.8-1.2,1-3.2,2.5-5.8,4.4-2.8,2.1-4.3,3.2-4.4,3.2s-1.1-1-3.1-2.9c1.6-1.7,4.2-4.2,7.6-7.4.2-.2,1.3-1,3.4-2.4,1.6-1.2,2.5-1.9,2.8-2.3h-1.6c-2.2,0-4.9.8-8.1,2.3-5.5,2.6-8.5,4-9.1,4.2-1.8.7-3.1,1-4,1s-2-.4-2.8-1.3l-3.2-3.2c-.2-.3-.5-1.1-.8-2.5-.2-1.2-.3-2.1-.3-2.8,0-2.2.5-5,1.6-8.5s2.3-6.3,3.7-8.4c.5-.8,1.3-1.9,2.4-3.4,4.9-5.3,8.4-8.7,10.6-10.3,3.4-2.6,7-3.8,10.7-3.8s2.4.1,3.6.4c1.8.4,3.6,1.2,5.4,2.4,1.5,1,2.5,2.1,3.2,3.1s1.4,2.5,2.2,4.4c.7,1.7,1,2.7,1,3h.2Z"/>
        <path class="cls-2" d="M249.8,316.9c0,.1-.7.8-2,2.2-1.3,1.3-2,2.1-2,2.1,0,.3.2,2,.5,5.2.4,3.5.8,6.1,1.1,7.7.1.8.5,2.1,1,3.8.6,1.7.8,2.7.8,2.8s-1.3,1.5-3.8,4.1c-2.5,2.5-3.9,3.8-4.1,3.8s-.7-.4-1.4-1.1-1.3-1.3-1.6-1.8v-1.4c-1-2.6-1.7-5.5-2.1-8.8-.4-3.5-.8-7-1.1-10.4h-1.8c-1.4,0-3.6.3-6.8.9s-5.1,1.1-5.9,1.4c.7,3.5,1.6,7.7,2.9,12.5.2.8.5,1.6.8,2.2,0,0,.2.3.5.6.3.3.4.6.4.8s-1.3,1.6-3.8,4.1-3.9,3.8-4,3.8-.8-.5-1.7-1.4-1.5-1.6-1.8-2.1c-.6-1.1-1.1-3-1.7-5.7-.6-2.1-1.4-5.3-2.3-9.5-.2-1.4-.4-3.6-.4-6.8s.4-9.1,1.3-15.8l1-2.8c.2-.6.5-1.5,1.1-2.7,1.1-1.4,3.9-4.3,8.5-8.7,2,1.9,2.9,2.9,2.9,3.1s-.2.5-.5,1c-.4.7-.7,1.2-.8,1.6-1,2.4-1.6,4.2-1.7,5.6-.6,5.2-.8,8.2-.8,8.9s.3,1.4.9,1.4,1.8-.4,5.3-1.2c3.8-.9,6.7-1.5,8.5-1.8v-7.6c0-.3-.1-.6-.2-.8,0-.6-.1-1.1-.1-1.6,0-1.1.2-2.1.6-2.9.6-1.3,1.8-2.6,3.5-4.1,1.4-1.2,2.8-2.3,4.3-3.5.6.4,1.1.9,1.7,1.4.6.5,1,1,1.1,1.5s.2,1.1.2,1.9-.1,2.2-.3,3.7c0,.7-.2,1.4-.3,2v9.1c.3,0,.7.1,1.3.3.5.4,1.1.9,1.8,1.6s1,1.1,1,1.3h0Z"/>
        <path class="cls-2" d="M298.1,317.8c0,.2-2.4,2.7-7.3,7.6h-10.9c-1.1,0-4.3.3-9.4.8v.6c0,.2.3,1.4.8,3.4.6,2.2,1.1,4,1.6,5.3.3.8.9,1.8,1.6,3.1,1.3-.6,2-.9,2-.9h.4c.2,0,.7-.2,1.9-.6,1.3-.4,2.3-.7,2.9-.9,5.5-1.4,9.4-2.1,11.5-2.1s.4,0,.8-.2c.4-.1.6-.2.7-.2.2,0,.7.4,1.6,1.3s1.3,1.4,1.3,1.6-1.1,1.5-3.2,3.8c-2.3,2.4-3.8,3.7-4.6,4-.4.2-1.1.3-2,.3-1.3,0-2,0-2.3.1-.7,0-3,.6-6.8,1.6-.8.1-2.1.5-3.8,1.1-.2.1-.7.6-1.6,1.6-.9.9-1.4,1.4-1.6,1.4l-.8-.4c-1-.5-2.3-1.4-3.7-2.8-1.4-1.4-2.5-2.7-3.3-3.9-.4-.7-.9-1.7-1.5-3.1-.9-2.3-1.7-5.3-2.4-9-.7-3.7-1-7-1-9.9,0-4.4.2-8.4.7-11.9,0-1,.2-2.1.2-3.1.2-1.2.6-2.3,1.2-3.2.8-1.3,2.3-2.9,4.3-4.9,1.9-1.8,3-2.6,3.2-2.6s.6.4,1.4,1.1,1.3,1.4,1.7,1.9c-.2.8-.3,1.2-.3,1.3,1-.2,3.2-.3,6.7-.3-.1,0,.3,0,1.3-.1h2.4c1,0,1.8.2,2.4.4.6.2,1.2.7,2,1.6s1.1,1.4,1.1,1.6-2.5,2.9-7.6,7.9c-.4-.4-.7-.7-1-.7-1-.1-1.6-.2-2-.2.3,0-.2,0-1.5,0h-5.6c.2.1.2.4.2,1-.2,1.4-.2,2.5-.2,3.5s.5,1.6,1.6,1.6c8-.9,12.6-1.4,14-1.4h10.4c1.8,1.8,2.6,2.8,2.6,2.9h-.1Z"/>
        <path class="cls-2" d="M348.4,305.6c0,1.8-.7,3.5-2.2,5.1-6.1,7-12.4,12.4-19,16.3-1.6,1-3.5,1.9-5.6,2.8-3.5,1.5-5.3,2.3-5.4,2.3.3,3.1.8,5.6,1.5,7.6.2.6.8,1.3,1.6,2.1s1.2,1.3,1.2,1.4-2.6,2.7-7.8,7.9c-2-1.6-3.5-3.4-4.5-5.3-.8-1.5-1.3-3.4-1.7-5.5-.2-1.8-.5-3.7-.8-5.6s-.4-5.2-.4-9.9.2-6.5.6-9.8c0-.2.1-.5.2-1.1s.2-.9.2-1-.3-.3-.8-.8-.8-.8-.8-1l2.3-2.5v-.4c2-2.1,4.4-4.4,7.2-7.1.4.4.7.6.8.6-.2,0,.8-.5,3-1.4,4.4-2,9.1-2.9,14-2.9s7.4.7,10.4,2c1.3.6,2.6,1.4,3.7,2.6,1.3,1.4,2,2.6,2,3.8l.3-.2ZM338.3,309.2c-3.8-1.4-7.2-2-10.3-2s-3.7.2-5.9.5c-2.6.4-4.5,1-5.8,1.7-.6,4.2-.9,8.8-1,13.6l.7.2c3.1-.9,4.9-1.5,5.5-1.7,2.1-.7,4.4-1.7,6.7-2.9,1.5-.7,3.3-1.8,5.4-3.2,1.1-.8,2.4-1.7,4-2.9.7-.8.9-1.9.7-3.4h0Z"/>
      </g>
    </g>
  </g>
</svg>